<?xml version="1.0" encoding="iso-8859-1"?>
<!-- Generator: Adobe Illustrator 19.0.0, SVG Export Plug-In . SVG Version: 6.00 Build 0)  -->
<svg version="1.1" id="Layer_1" xmlns="http://www.w3.org/2000/svg" xmlns:xlink="http://www.w3.org/1999/xlink" x="0px" y="0px"
	 viewBox="0 0 512 512" style="enable-background:new 0 0 512 512;" xml:space="preserve">
<g>
	<g>
		<path d="M301,92c-13.18,0-25.116,7.296-31.149,19.042l-4.186,8.146h-19.33l-4.186-8.146C236.116,99.296,224.18,92,211,92
			c-19.299,0-35,15.701-35,35c0,30.033,23.021,56.317,42.332,73.08c14.686,12.747,29.386,21.99,37.652,26.786
			C276.394,214.993,336,176.106,336,127C336,107.701,320.299,92,301,92z"/>
	</g>
</g>
<g>
	<g>
		<path d="M52,0v512h408V0H52z M280,439H142v-30h138V439z M280,379H142v-30h138V379z M280,319H142v-30h138V319z M262.755,257.393
			L256,260.8l-6.755-3.407C245.029,255.267,146,204.431,146,127c0-35.841,29.159-65,65-65c17.119,0,33.105,6.623,45,18.06
			C267.895,68.623,283.881,62,301,62c35.841,0,65,29.159,65,65C366,204.431,266.971,255.267,262.755,257.393z M370,439h-30v-30h30
			V439z M370,379h-30v-30h30V379z M370,319h-30v-30h30V319z"/>
	</g>
</g>
<g>
</g>
<g>
</g>
<g>
</g>
<g>
</g>
<g>
</g>
<g>
</g>
<g>
</g>
<g>
</g>
<g>
</g>
<g>
</g>
<g>
</g>
<g>
</g>
<g>
</g>
<g>
</g>
<g>
</g>
</svg>
